# Made in Blockbench 4.12.4
mtllib materials.mtl

o dirt
v 0.4777144171082489 1 0.5213338044735846
v 0.5213338044735839 1 -0.47771441710824847
v 0.5 0 0.5
v 0.5 0 -0.5
v -0.5213338044735825 1 0.47771441710824847
v -0.4777144171082488 1 -0.5213338044735839
v -0.5 0 0.5
v -0.5 0 -0.5
v -0.47771441710824475 1 -0.5213338044735808
v -0.5213338044735795 1 0.4777144171082452
v 0.5213338044735799 1 -0.4777144171082443
v 0.47771441710824564 1 0.5213338044735804
vt 0.8984374999999989 0.6796875000000003
vt 0.8828124999999989 0.6796875000000003
vt 0.8828124999999989 0.6640625000000003
vt 0.8984374999999989 0.6640625000000003
vt 0.8984374999999989 0.6640625000000003
vt 0.8984374999999989 0.6796875000000003
vt 0.8828124999999989 0.6796875000000003
vt 0.8828124999999989 0.6640625000000003
vt 0.8984374999999989 0.6640625000000003
vt 0.8984374999999989 0.6796875000000003
vt 0.8828124999999989 0.6796875000000003
vt 0.8828124999999989 0.6640625000000003
vt 0.8984374999999989 0.6640625000000003
vt 0.8984374999999989 0.6796875000000003
vt 0.8828124999999989 0.6796875000000003
vt 0.8828124999999989 0.6640625000000003
vt 0.8984374999999989 0.6796875000000003
vt 0.8828124999999989 0.6796875000000003
vt 0.8828124999999989 0.6640625000000003
vt 0.8984374999999989 0.6640625000000003
vt 0.8828124999999989 0.6640625000000003
vt 0.8984374999999989 0.6640625000000003
vt 0.8984374999999989 0.6796875000000003
vt 0.8828124999999989 0.6796875000000003
vn 0.9988209501430345 0.02132895129001568 0.04360946448002087
vn -0.9988002266991433 -0.02228005091599466 -0.043608559674918966
vn 0 -1 0
vn -0.04360855967492144 -0.022280050915996795 0.998800226699143
vn 0.04360946448002133 0.02132895129001614 -0.9988209501430344
vn 0 1 0
usemtl m_1210c906-701a-5c8a-624c-817b18e3069a
f 2/1/1 1/2/1 3/3/1 4/4/1
f 7/5/2 5/6/2 6/7/2 8/8/2
f 4/9/3 3/10/3 7/11/3 8/12/3
f 3/13/4 1/14/4 5/15/4 7/16/4
f 6/17/5 2/18/5 4/19/5 8/20/5
f 11/21/6 9/22/6 10/23/6 12/24/6