# Made in Blockbench 4.12.4
mtllib materials.mtl

o log
v 0.4999999999999982 0.9999999999999976 0.5
v 0.49999999999999717 2.609024107869118e-15 0.5
v -0.49999999999999706 0.9999999999999976 0.5
v -0.49999999999999767 1.7763568394002505e-15 0.5
v -0.4999999999999976 0 -0.4999999999999974
v -0.49999999999999717 0 0.4999999999999976
v 0.4999999999999974 0 -0.49999999999999784
v 0.49999999999999784 0 0.49999999999999717
v 0.4999999999999957 0.9999999999999962 -0.5
v 0.4999999999999962 3.7192471324942744e-15 -0.5
v -0.4999999999999964 0.9999999999999949 -0.5
v -0.499999999999996 3.3306690738754696e-15 -0.5
v 0.5 0.9999999999999951 0.49999999999999467
v 0.5 0.9999999999999944 -0.4999999999999954
v 0.5 5.662137425588298e-15 0.49999999999999506
v 0.5 4.107825191113079e-15 -0.4999999999999939
v -0.5 0.9999999999999969 0.4999999999999966
v -0.5 0.9999999999999971 -0.4999999999999967
v -0.5 3.0531133177191805e-15 0.49999999999999684
v -0.5 3.2751579226442118e-15 -0.49999999999999717
v 0.4999999999999985 1 -0.4999999999999986
v -0.4999999999999984 1 -0.4999999999999986
v 0.4999999999999984 1 0.4999999999999984
v -0.4999999999999985 1 0.4999999999999984
vt 0.5545898437499995 0.44531249999999956
vt 0.5545898437499995 0.46093749999999956
vt 0.5389648437499995 0.46093749999999956
vt 0.5389648437499995 0.44531249999999956
vt 0.6171875 0.4453125000000001
vt 0.6171875 0.4609375
vt 0.6015625 0.4609375
vt 0.6015625 0.4453125000000001
vt 0.5545898437499995 0.46093749999999956
vt 0.5389648437499995 0.46093749999999956
vt 0.5389648437499995 0.44531249999999956
vt 0.5545898437499995 0.44531249999999956
vt 0.5545898437499995 0.46093749999999956
vt 0.5389648437499995 0.46093749999999956
vt 0.5389648437499995 0.44531249999999956
vt 0.5545898437499995 0.44531249999999956
vt 0.5545898437499995 0.44531249999999956
vt 0.5545898437499995 0.46093749999999956
vt 0.5389648437499995 0.46093749999999956
vt 0.5389648437499995 0.44531249999999956
vt 0.6015624999999998 0.44531249999999956
vt 0.6171874999999998 0.44531249999999956
vt 0.6171874999999998 0.46093749999999956
vt 0.6015624999999998 0.46093749999999956
vn 0 0 1
vn 0 -1 0
vn 0 0 -1
vn 1 0 0
vn -1 0 0
vn 0 1 0
usemtl m_368a3a99-0ef0-95cd-fd0d-3087c5eedd3d
f 2/1/1 1/2/1 3/3/1 4/4/1
f 6/5/2 5/6/2 7/7/2 8/8/2
f 11/9/3 9/10/3 10/11/3 12/12/3
f 14/13/4 13/14/4 15/15/4 16/16/4
f 19/17/5 17/18/5 18/19/5 20/20/5
f 23/21/6 21/22/6 22/23/6 24/24/6